#!OML:ASF I:\golf\golf\golf 2\Subject 1\2002-09-07\Subject1.ASF
:FULLY-SPECIFIED
:DEGREES
442
root -10.3876 18.0265 4.4847 -152.319 75.1429 -170.252
lowerback 2.72413 1.80445 -0.257007
upperback 4.50039 2.49681 4.33384
thorax 2.90758 1.24266 4.62316
lowerneck -13.2341 5.97602 5.50674
upperneck 34.1104 13.1892 -10.6907
head 15.3309 5.53247 -3.00176
rclavicle -1.19271e-014 5.40694e-014
rhumerus -15.5947 22.665 -98.5007
rradius 48.3219
rwrist -50.948
rhand -33.1836 -9.85778
rfingers 7.12502
rthumb -6.3915 -39.7414
lclavicle -1.19271e-014 5.40694e-014
lhumerus -8.82504 -47.1275 105.572
lradius 42.5938
lwrist 49.7161
lhand -7.01664 64.1286
lfingers 7.12502
lthumb -161.145 86.7652
rfemur -24.4715 -9.45631 16.7481
rtibia 26.0255
rfoot -10.985 -17.6295
rtoes -2.36588
lfemur -32.5949 0.644165 -10.793
ltibia 21.8372
lfoot -6.69557 -16.952
ltoes -6.91386
443
root -10.3843 18.0274 4.48383 -152.18 75.2152 -170.052
lowerback 2.75648 1.83145 -0.348772
upperback 4.48908 2.53342 4.39033
thorax 2.86882 1.25843 4.73218
lowerneck -13.1718 5.99126 5.43051
upperneck 34.0763 13.2506 -10.73
head 15.3059 5.54958 -2.99429
rclavicle -6.04305e-014 -2.54444e-014
rhumerus -15.6442 22.7028 -98.4758
rradius 48.3054
rwrist -51.009
rhand -33.149 -9.82548
rfingers 7.12502
rthumb -6.35802 -39.7101
lclavicle -6.04305e-014 -2.54444e-014
lhumerus -8.86301 -47.0357 105.659
lradius 42.5804
lwrist 49.6935
lhand -6.73709 63.9793
lfingers 7.12502
lthumb -160.876 86.9409
rfemur -24.3992 -9.40453 16.763
rtibia 26.004
rfoot -10.9322 -17.615
rtoes -2.47317
lfemur -32.5008 0.620175 -10.7339
ltibia 21.8412
lfoot -6.73433 -16.8569
ltoes -6.77488
444
root -10.3805 18.0282 4.48391 -151.797 75.255 -169.638
lowerback 2.75762 1.87581 -0.360877
upperback 4.46527 2.593 4.42536
thorax 2.83649 1.28818 4.77426
lowerneck -13.125 6.00191 5.47868
upperneck 33.9859 13.2585 -10.7966
head 15.263 5.55471 -3.02859
rclavicle 9.14409e-015 7.15625e-015
rhumerus -15.6041 22.637 -98.4869
rradius 48.1689
rwrist -50.9819
rhand -33.1771 -9.73351
rfingers 7.12502
rthumb -6.38514 -39.6173
lclavicle 9.14409e-015 7.15625e-015
lhumerus -8.95087 -47.147 105.705
lradius 42.6389
lwrist 49.8245
lhand -6.63636 63.8681
lfingers 7.12502
lthumb -160.779 87.0617
rfemur -24.3639 -9.33816 16.8499
rtibia 25.9761
rfoot -10.9245 -17.576
rtoes -2.70451
lfemur -32.4601 0.632611 -10.6176
ltibia 21.867
lfoot -6.77137 -16.7781
ltoes -6.72896
445
root -10.377 18.0275 4.48259 -151.761 75.2434 -169.577
lowerback 2.75645 1.87672 -0.354299
upperback 4.44343 2.59379 4.40683
thorax 2.81538 1.28901 4.75035
lowerneck -12.9928 6.04877 5.57918
upperneck 33.7972 13.2872 -10.876
head 15.1608 5.57744 -3.07416
rclavicle -4.21423e-014 -6.83819e-014
rhumerus -15.6133 22.6495 -98.5324
rradius 48.1442
rwrist -51.0703
rhand -33.3588 -9.79642
rfingers 7.12502
rthumb -6.56056 -39.6748
lclavicle -4.21423e-014 -6.83819e-014
lhumerus -9.02661 -47.2035 105.733
lradius 42.653
lwrist 49.915
lhand -6.68416 63.7405
lfingers 7.12502
lthumb -160.825 87.1847
rfemur -24.3074 -9.37129 16.8731
rtibia 25.9458
rfoot -10.9149 -17.5665
rtoes -2.97034
lfemur -32.4443 0.708515 -10.6359
ltibia 21.909
lfoot -6.78321 -16.8524
ltoes -6.70383
446
root -10.3746 18.0264 4.4809 -151.697 75.1987 -169.492
lowerback 2.75281 1.84761 -0.350125
upperback 4.42783 2.55537 4.43477
thorax 2.80351 1.27 4.77724
lowerneck -12.9972 6.10416 5.5812
upperneck 33.7405 13.3968 -10.9702
head 15.1594 5.61385 -3.09183
rclavicle 6.0033e-014 3.97569e-015
rhumerus -15.7482 22.8359 -98.4962
rradius 48.2876
rwrist -51.2456
rhand -33.5222 -9.85302
rfingers 7.12502
rthumb -6.71832 -39.7264
lclavicle 6.0033e-014 3.97569e-015
lhumerus -9.01803 -47.0685 105.787
lradius 42.5782
lwrist 49.8065
lhand -6.50927 63.6744
lfingers 7.12502
lthumb -160.657 87.2676
rfemur -24.2684 -9.40987 16.9182
rtibia 25.9457
rfoot -10.891 -17.6054
rtoes -3.09168
lfemur -32.4369 0.803821 -10.6471
ltibia 21.9257
lfoot -6.79131 -17.0084
ltoes -6.73749
447
root -10.3725 18.0265 4.48017 -151.669 75.1373 -169.476
lowerback 2.71558 1.82911 -0.349337
upperback 4.40879 2.52965 4.43518
thorax 2.80683 1.25693 4.77835
lowerneck -13.1838 6.12501 5.50771
upperneck 33.7705 13.458 -10.9923
head 15.2225 5.61805 -3.07111
rclavicle 3.18055e-015 -2.3059e-014
rhumerus -15.884 22.85 -98.4839
rradius 48.4123
rwrist -51.1783
rhand -33.4585 -9.86961
rfingers 7.12502
rthumb -6.6568 -39.745
lclavicle 3.18055e-015 -2.3059e-014
lhumerus -9.02087 -47.0922 105.774
lradius 42.5927
lwrist 49.9519
lhand -6.39155 63.7479
lfingers 7.12502
lthumb -160.544 87.2054
rfemur -24.2729 -9.42885 16.9513
rtibia 25.9754
rfoot -10.9521 -17.6192
rtoes -2.74839
lfemur -32.4604 0.837598 -10.6409
ltibia 21.9192
lfoot -6.80488 -17.1035
ltoes -6.98075
448
root -10.371 18.0273 4.47972 -151.705 75.1224 -169.513
lowerback 2.70455 1.82809 -0.36717
upperback 4.37741 2.52702 4.40529
thorax 2.78108 1.25524 4.75646
lowerneck -13.224 6.14229 5.47887
upperneck 33.6929 13.4801 -11.0192
head 15.1981 5.61889 -3.06996
rclavicle 4.73108e-014 8.66701e-014
rhumerus -15.9564 22.7425 -98.5313
rradius 48.4515
rwrist -51.0853
rhand -33.4046 -10.036
rfingers 7.12502
rthumb -6.60479 -39.913
lclavicle 4.73108e-014 8.66701e-014
lhumerus -9.07737 -47.1176 105.783
lradius 42.6051
lwrist 50.1604
lhand -6.45854 63.6802
lfingers 7.12502
lthumb -160.608 87.2667
rfemur -24.2759 -9.40385 16.9422
rtibia 26.004
rfoot -11.0035 -17.5985
rtoes -2.44532
lfemur -32.4663 0.873707 -10.6679
ltibia 21.9188
lfoot -6.88092 -17.1128
ltoes -7.37069
449
root -10.3688 18.0275 4.47928 -151.641 75.1503 -169.448
lowerback 2.69614 1.82779 -0.411608
upperback 4.34766 2.52536 4.39479
thorax 2.75369 1.25319 4.7699
lowerneck -13.2023 6.18154 5.51188
upperneck 33.671 13.5187 -11.0049
head 15.1883 5.64156 -3.06266
rclavicle -6.79844e-014 -1.82882e-014
rhumerus -15.9573 22.7182 -98.5893
rradius 48.4168
rwrist -51.1513
rhand -33.5284 -10.1267
rfingers 7.12502
rthumb -6.72436 -39.9999
lclavicle -6.79844e-014 -1.82882e-014
lhumerus -9.08979 -47.0085 105.822
lradius 42.5314
lwrist 50.1267
lhand -6.68856 63.6375
lfingers 7.12502
lthumb -160.83 87.2873
rfemur -24.2846 -9.33326 16.9376
rtibia 26.0299
rfoot -11.0272 -17.6106
rtoes -2.42906
lfemur -32.4602 0.90116 -10.6684
ltibia 21.9391
lfoot -6.91246 -17.1014
ltoes -7.20065
450
root -10.3659 18.0273 4.47815 -151.502 75.1717 -169.293
lowerback 2.67837 1.83114 -0.409055
upperback 4.32533 2.52874 4.37039
thorax 2.74122 1.25497 4.74279
lowerneck -13.106 6.2218 5.66679
upperneck 33.6338 13.5557 -11.0651
head 15.1715 5.67452 -3.11037
rclavicle -1.59028e-014 -3.73715e-014
rhumerus -15.9325 22.6761 -98.6802
rradius 48.3385
rwrist -51.2144
rhand -33.7046 -10.0986
rfingers 7.12502
rthumb -6.89438 -39.9663
lclavicle -1.59028e-014 -3.73715e-014
lhumerus -9.10801 -46.971 105.821
lradius 42.4841
lwrist 50.0473
lhand -6.94249 63.6854
lfingers 7.12502
lthumb -161.074 87.2154
rfemur -24.2783 -9.24158 16.9518
rtibia 26.0665
rfoot -11.1035 -17.6881
rtoes -2.34555
lfemur -32.4426 0.850785 -10.6014
ltibia 21.9861
lfoot -6.88372 -17.0516
ltoes -6.76828
